{"title":"The Matrix Trilogy BRRip 720p[Dual Audio][Eng Hindi]Current_HD","uid":6289468,"size":2344886654,"categoryP":"video","categoryS":"hd___movies","magnet":"?xt=urn:btih:90dd928ed293805f337f1f8613bddd32f7538a54&amp;dn=The+Matrix+Trilogy+BRRip+720p%5BDual+Audio%5D%5BEng+Hindi%5DCurrent_HD&amp;tr=udp%3A%2F%2Ftracker.openbittorrent.com%3A80&amp;tr=udp%3A%2F%2Fopen.demonii.com%3A1337&amp;tr=udp%3A%2F%2Ftracker.coppersurfer.tk%3A6969&amp;tr=udp%3A%2F%2Fexodus.desync.com%3A6969","seeders":6,"leechers":5,"uploader":"CurrentHD","files":-1,"time":1301702615,"description":" The Matrix 1999              \n\n\nGeneral                          : The Matrix (1999)BRRip 720p[Dual Audio][Eng Hindi]Current_HD\nFormat                           : Matroska\nFile size                        : 765 MiB\nDuration                         : 2h 16mn\nOverall bit rate                 : 784 Kbps\nEncoded date                     : UTC 2011-04-02 09:08:39\nWriting application              : mkvmerge v4.6.0 \nWriting library                  : libebml v1.2.0 \nVideo\nID                               : 1\nFormat                           : AVC\nFormat/Info                      : Advanced Video Codec\nFormat profile                   : &lt;a class=&quot;__cf_email__&quot; href=&quot;/cdn-cgi/l/email-protection&quot; data-cfemail=&quot;1d55747a755d5129332c&quot;&gt;[email&amp;#160;protected]&lt;/a&gt;&lt;script cf-hash='f9e31' type=&quot;text/javascript&quot;&gt;\n/* &lt;![CDATA[ */!function(){try{var t=&quot;currentScript&quot;in document?document.currentScript:function(){for(var t=document.getElementsByTagName(&quot;script&quot;),e=t.length;e--;)if(t[e].getAttribute(&quot;cf-hash&quot;))return t[e]}();if(t&amp;&amp;t.previousSibling){var e,r,n,i,c=t.previousSibling,a=c.getAttribute(&quot;data-cfemail&quot;);if(a){for(e=&quot;&quot;,r=parseInt(a.substr(0,2),16),n=2;a.length-n;n+=2)i=parseInt(a.substr(n,2),16)^r,e+=String.fromCharCode(i);e=document.createTextNode(e),c.parentNode.replaceChild(e,c)}}}catch(u){}}();/* ]]&gt; */&lt;/script&gt;\nFormat settings, CABAC           : Yes\nFormat settings, ReFrames        : 4 frames\nMuxing mode                      : Header stripping\nCodec ID                         : V_MPEG4/ISO/AVC\nDuration                         : 2h 16mn\nNominal bit rate                 : 524 Kbps\nWidth                            : 1 280 pixels\nHeight                           : 528 pixels\nDisplay aspect ratio             : 2.40:1\nFrame rate                       : 23.976 fps\nColor space                      : YUV\nChroma subsampling               : 4:2:0\nBit depth                        : 8 bits\nScan type                        : Progressive\nBits/(Pixel*Frame)               : 0.032\nTitle                            : CurrentHD\nWriting library                  : x264 core 68 r1183M f21daff\nLanguage                         : English\n\nAudio #1\nID                               : 2\nFormat                           : AAC\nFormat/Info                      : Advanced Audio Codec\nFormat profile                   : HE-AAC / LC\nCodec ID                         : A_AAC\nDuration                         : 2h 16mn\nChannel(s)                       : 2 channels\nChannel positions                : Front: L R\nSampling rate                    : 48.0 KHz / 24.0 KHz\nCompression mode                 : Lossy\nTitle                            : CurrentHD\nLanguage                         : English\n\nAudio #2\nID                               : 3\nFormat                           : AC-3\nFormat/Info                      : Audio Coding 3\nMode extension                   : CM (complete main)\nMuxing mode                      : Header stripping\nCodec ID                         : AC3\nDuration                         : 2h 16mn\nBit rate mode                    : Constant\nBit rate                         : 224 Kbps\nChannel(s)                       : 6 channels\nChannel positions                : Front: L C R, Side: L R, LFE\nSampling rate                    : 48.0 KHz\nBit depth                        : 16 bits\nCompression mode                 : Lossy\nStream size                      : 219 MiB (29%)\nTitle                            : CurrentHD\nLanguage                         : Hindi\n\nText\nID                               : 4\nFormat                           : UTF-8\nCodec ID                         : S_TEXT/UTF8\nCodec ID/Info                    : UTF-8 Plain Text\nTitle                            : CurrentHD\nLanguage                         : English\n\n\nThe Matrix Reloaded\n\nGeneral\nComplete name                    : The Matrix Reloaded  BRRip 720p[Dual Audio][Eng Hindi]Current_HD\nFormat                           : Matroska\nFile size                        : 768 MiB\nDuration                         : 2h 18mn\nOverall bit rate                 : 776 Kbps\nEncoded date                     : UTC 2011-04-02 09:14:45\nWriting application              : mkvmerge v4.6.0 \nWriting library                  : libebml v1.2.0\n\nVideo\nID                               : 1\nFormat                           : AVC\nFormat/Info                      : Advanced Video Codec\nFormat profile                   : &lt;a class=&quot;__cf_email__&quot; href=&quot;/cdn-cgi/l/email-protection&quot; data-cfemail=&quot;f9b1909e91b9b5cdd7c8&quot;&gt;[email&amp;#160;protected]&lt;/a&gt;&lt;script cf-hash='f9e31' type=&quot;text/javascript&quot;&gt;\n/* &lt;![CDATA[ */!function(){try{var t=&quot;currentScript&quot;in document?document.currentScript:function(){for(var t=document.getElementsByTagName(&quot;script&quot;),e=t.length;e--;)if(t[e].getAttribute(&quot;cf-hash&quot;))return t[e]}();if(t&amp;&amp;t.previousSibling){var e,r,n,i,c=t.previousSibling,a=c.getAttribute(&quot;data-cfemail&quot;);if(a){for(e=&quot;&quot;,r=parseInt(a.substr(0,2),16),n=2;a.length-n;n+=2)i=parseInt(a.substr(n,2),16)^r,e+=String.fromCharCode(i);e=document.createTextNode(e),c.parentNode.replaceChild(e,c)}}}catch(u){}}();/* ]]&gt; */&lt;/script&gt;\nFormat settings, CABAC           : Yes\nFormat settings, ReFrames        : 4 frames\nMuxing mode                      : Header stripping\nCodec ID                         : V_MPEG4/ISO/AVC\nDuration                         : 2h 18mn\nNominal bit rate                 : 516 Kbps\nWidth                            : 1 280 pixels\nHeight                           : 528 pixels\nDisplay aspect ratio             : 2.40:1\nFrame rate                       : 23.976 fps\nColor space                      : YUV\nChroma subsampling               : 4:2:0\nBit depth                        : 8 bits\nScan type                        : Progressive\nBits/(Pixel*Frame)               : 0.032\nTitle                            : CurrentHD\nWriting library                  : x264 core 68 r1183M f21daff\nLanguage                         : English\n\nAudio #1\nID                               : 2\nFormat                           : AAC\nFormat/Info                      : Advanced Audio Codec\nFormat profile                   : HE-AAC / LC\nCodec ID                         : A_AAC\nDuration                         : 2h 18mn\nChannel(s)                       : 2 channels\nChannel positions                : Front: L R\nSampling rate                    : 48.0 KHz / 24.0 KHz\nCompression mode                 : Lossy\nTitle                            : CurrentHD\nLanguage                         : English\n\nAudio #2\nID                               : 3\nFormat                           : AC-3\nFormat/Info                      : Audio Coding 3\nMode extension                   : CM (complete main)\nMuxing mode                      : Header stripping\nCodec ID                         : A_AC3\nDuration                         : 2h 18mn\nBit rate mode                    : Constant\nBit rate                         : 224 Kbps\nChannel(s)                       : 6 channels\nChannel positions                : Front: L C R, Side: L R, LFE\nSampling rate                    : 48.0 KHz\nBit depth                        : 16 bits\nCompression mode                 : Lossy\nStream size                      : 222 MiB (29%)\nTitle                            : CurrentHD\nLanguage                         : Hindi\n\nText\nID                               : 4\nFormat                           : UTF-8\nCodec ID                         : S_TEXT/UTF8\nCodec ID/Info                    : UTF-8 Plain Text\nTitle                            : CurrentHD\nLanguage                         : English\n\n\n\nThe Matrix Revolutions\n\nGeneral\nComplete name                    : The Matrix Revolutions BRRip 720p[Dual Audio][Eng Hindi]Current_HD\nFormat                           : Matroska\nFile size                        : 703 MiB\nDuration                         : 2h 9mn\nOverall bit rate                 : 760 Kbps\nEncoded date                     : UTC 2011-04-02 09:18:32\nWriting application              : mkvmerge v4.6.0 \nWriting library                  : libebml v1.2.0 \n\nVideo\nID                               : 1\nFormat                           : AVC\nFormat/Info                      : Advanced Video Codec\nFormat profile                   : &lt;a class=&quot;__cf_email__&quot; href=&quot;/cdn-cgi/l/email-protection&quot; data-cfemail=&quot;135b7a747b535f273d22&quot;&gt;[email&amp;#160;protected]&lt;/a&gt;&lt;script cf-hash='f9e31' type=&quot;text/javascript&quot;&gt;\n/* &lt;![CDATA[ */!function(){try{var t=&quot;currentScript&quot;in document?document.currentScript:function(){for(var t=document.getElementsByTagName(&quot;script&quot;),e=t.length;e--;)if(t[e].getAttribute(&quot;cf-hash&quot;))return t[e]}();if(t&amp;&amp;t.previousSibling){var e,r,n,i,c=t.previousSibling,a=c.getAttribute(&quot;data-cfemail&quot;);if(a){for(e=&quot;&quot;,r=parseInt(a.substr(0,2),16),n=2;a.length-n;n+=2)i=parseInt(a.substr(n,2),16)^r,e+=String.fromCharCode(i);e=document.createTextNode(e),c.parentNode.replaceChild(e,c)}}}catch(u){}}();/* ]]&gt; */&lt;/script&gt;\nFormat settings, CABAC           : Yes\nFormat settings, ReFrames        : 4 frames\nMuxing mode                      : Header stripping\nCodec ID                         : V_MPEG4/ISO/AVC\nDuration                         : 2h 9mn\nNominal bit rate                 : 500 Kbps\nWidth                            : 1 280 pixels\nHeight                           : 528 pixels\nDisplay aspect ratio             : 2.40:1\nFrame rate                       : 23.976 fps\nColor space                      : YUV\nChroma subsampling               : 4:2:0\nBit depth                        : 8 bits\nScan type                        : Progressive\nBits/(Pixel*Frame)               : 0.031\nTitle                            : CurrentHD\nWriting library                  : x264 core 68 r1183M f21daff\nLanguage                         : English\n\nAudio #1\nID                               : 2\nFormat                           : AAC\nFormat/Info                      : Advanced Audio Codec\nFormat profile                   : HE-AAC / LC\nCodec ID                         : A_AAC\nDuration                         : 2h 9mn\nChannel(s)                       : 2 channels\nChannel positions                : Front: L R\nSampling rate                    : 48.0 KHz / 24.0 KHz\nCompression mode                 : Lossy\nTitle                            : CurrentHD\nLanguage                         : English\n\nAudio #2\nID                               : 3\nFormat                           : AC-3\nFormat/Info                      : Audio Coding 3\nMode extension                   : CM (complete main)\nMuxing mode                      : Header stripping\nCodec ID                         : A_AC3\nDuration                         : 2h 9mn\nBit rate mode                    : Constant\nBit rate                         : 224 Kbps\nChannel(s)                       : 6 channels\nChannel positions                : Front: L C R, Side: L R, LFE\nSampling rate                    : 48.0 KHz\nBit depth                        : 16 bits\nCompression mode                 : Lossy\nStream size                      : 207 MiB (29%)\nTitle                            : CurrentHD\nLanguage                         : Hindi\n\nText\nID                               : 4\nFormat                           : UTF-8\nCodec ID                         : S_TEXT/UTF8\nCodec ID/Info                    : UTF-8 Plain Text\nTitle                            : CurrentHD\nLanguage                         : English\n\n\n\nSCREENSHOTS\n &lt;a href=&quot;\nhttp://img805.imageshack.us/img805/7590/vlcsnap2011040201h57m28.png&quot; rel=&quot;nofollow&quot; target=&quot;_NEW&quot;&gt;\nhttp://img805.imageshack.us/img805/7590/vlcsnap2011040201h57m28.png&lt;/a&gt; &lt;a href=&quot;\nhttp://img813.imageshack.us/img813/875/vlcsnap2011040201h57m50.png&quot; rel=&quot;nofollow&quot; target=&quot;_NEW&quot;&gt;\nhttp://img813.imageshack.us/img813/875/vlcsnap2011040201h57m50.png&lt;/a&gt; &lt;a href=&quot;\nhttp://img860.imageshack.us/img860/5551/vlcsnap2011040201h58m09.png&quot; rel=&quot;nofollow&quot; target=&quot;_NEW&quot;&gt;\nhttp://img860.imageshack.us/img860/5551/vlcsnap2011040201h58m09.png&lt;/a&gt; &lt;a href=&quot;\nhttp://img833.imageshack.us/img833/2316/vlcsnap2011040201h58m19.png&quot; rel=&quot;nofollow&quot; target=&quot;_NEW&quot;&gt;\nhttp://img833.imageshack.us/img833/2316/vlcsnap2011040201h58m19.png&lt;/a&gt; &lt;a href=&quot;\nhttp://img716.imageshack.us/img716/4681/vlcsnap2011040202h43m53.png&quot; rel=&quot;nofollow&quot; target=&quot;_NEW&quot;&gt;\nhttp://img716.imageshack.us/img716/4681/vlcsnap2011040202h43m53.png&lt;/a&gt; &lt;a href=&quot;\nhttp://img218.imageshack.us/img218/6640/vlcsnap2011040202h44m08.png&quot; rel=&quot;nofollow&quot; target=&quot;_NEW&quot;&gt;\nhttp://img218.imageshack.us/img218/6640/vlcsnap2011040202h44m08.png&lt;/a&gt; &lt;a href=&quot;\nhttp://img831.imageshack.us/img831/7204/vlcsnap2011040202h44m38.png&quot; rel=&quot;nofollow&quot; target=&quot;_NEW&quot;&gt;\nhttp://img831.imageshack.us/img831/7204/vlcsnap2011040202h44m38.png&lt;/a&gt; &lt;a href=&quot;\nhttp://img651.imageshack.us/img651/606/vlcsnap2011040202h45m04.png&quot; rel=&quot;nofollow&quot; target=&quot;_NEW&quot;&gt;\nhttp://img651.imageshack.us/img651/606/vlcsnap2011040202h45m04.png&lt;/a&gt; &lt;a href=&quot;\nhttp://img850.imageshack.us/img850/2455/vlcsnap2011040202h46m11.png&quot; rel=&quot;nofollow&quot; target=&quot;_NEW&quot;&gt;\nhttp://img850.imageshack.us/img850/2455/vlcsnap2011040202h46m11.png&lt;/a&gt; &lt;a href=&quot;\nhttp://img850.imageshack.us/img850/4124/vlcsnap2011040202h46m23.png&quot; rel=&quot;nofollow&quot; target=&quot;_NEW&quot;&gt;\nhttp://img850.imageshack.us/img850/4124/vlcsnap2011040202h46m23.png&lt;/a&gt; &lt;a href=&quot;\nhttp://img852.imageshack.us/img852/2490/vlcsnap2011040202h46m30.png&quot; rel=&quot;nofollow&quot; target=&quot;_NEW&quot;&gt;\nhttp://img852.imageshack.us/img852/2490/vlcsnap2011040202h46m30.png&lt;/a&gt;\n\n\n\n                ORIGINAL AC3 5.1 channels Hindi","torrent":{"xt":"urn:btih:90dd928ed293805f337f1f8613bddd32f7538a54","amp;dn":"The+Matrix+Trilogy+BRRip+720p%5BDual+Audio%5D%5BEng+Hindi%5DCurrent_HD","amp;tr":["udp%3A%2F%2Ftracker.openbittorrent.com%3A80","udp%3A%2F%2Fopen.demonii.com%3A1337","udp%3A%2F%2Ftracker.coppersurfer.tk%3A6969","udp%3A%2F%2Fexodus.desync.com%3A6969"],"infoHash":"90dd928ed293805f337f1f8613bddd32f7538a54","infoHashBuffer":{"type":"Buffer","data":[144,221,146,142,210,147,128,95,51,127,31,134,19,189,221,50,247,83,138,84]},"announce":[],"urlList":[]}}